<svg height="512" viewBox="0 0 512 512" width="512" xmlns="http://www.w3.org/2000/svg" xmlns:xlink="http://www.w3.org/1999/xlink"><linearGradient id="New_Gradient_Swatch_13" gradientUnits="userSpaceOnUse" x1="395.456" x2="482.368" y1="323.456" y2="236.544"><stop offset="0" stop-color="#d46669"/><stop offset="1" stop-color="#dd888a"/></linearGradient><linearGradient id="New_Gradient_Swatch_3" gradientUnits="userSpaceOnUse" x1="374.544" x2="471.515" y1="328.485" y2="231.515"><stop offset=".011" stop-color="#606082"/><stop offset="1" stop-color="#83839e"/></linearGradient><linearGradient id="New_Gradient_Swatch_13-2" gradientTransform="matrix(-1 0 0 1 512 0)" x1="395.456" x2="482.368" xlink:href="#New_Gradient_Swatch_13" y1="323.456" y2="236.544"/><linearGradient id="New_Gradient_Swatch_3-2" gradientTransform="matrix(1 0 0 -1 -320 560)" x1="471.515" x2="374.544" xlink:href="#New_Gradient_Swatch_3" y1="328.485" y2="231.515"/><linearGradient id="New_Gradient_Swatch_3-3" x1="239.029" x2="288.971" xlink:href="#New_Gradient_Swatch_3" y1="496.971" y2="447.029"/><linearGradient id="New_Gradient_Swatch_5" gradientUnits="userSpaceOnUse" x1="192" x2="320" y1="328" y2="200"><stop offset=".011" stop-color="#f8c73f"/><stop offset="1" stop-color="#fada7f"/></linearGradient><g id="_14-premium_support" data-name="14-premium support"><g id="linear_color" data-name="linear color"><path d="m424 208v144a72 72 0 0 0 0-144z" fill="url(#New_Gradient_Swatch_13)"/><path d="m416 200h24a0 0 0 0 1 0 0v160a0 0 0 0 1 0 0h-24a24 24 0 0 1 -24-24v-112a24 24 0 0 1 24-24z" fill="url(#New_Gradient_Swatch_3)"/><path d="m88 208v144a72 72 0 0 1 0-144z" fill="url(#New_Gradient_Swatch_13-2)"/><path d="m96 200h24a0 0 0 0 1 0 0v160a0 0 0 0 1 0 0h-24a24 24 0 0 1 -24-24v-112a24 24 0 0 1 24-24z" fill="url(#New_Gradient_Swatch_3-2)" transform="matrix(-1 0 0 -1 192 560)"/><rect fill="url(#New_Gradient_Swatch_3-3)" height="48" rx="24" width="80" x="224" y="448"/><path d="m328 320h-144l-16-96 49 32 39-64 39 64 49-32z" fill="url(#New_Gradient_Swatch_5)"/><path d="m489.354 227.229a84.515 84.515 0 0 0 -37.354-26.429v-64.8c0-72.785-59.215-132-132-132h-128c-72.785 0-132 59.215-132 132v64.8a84.005 84.005 0 0 0 0 158.4v48.8a76.086 76.086 0 0 0 76 76h78.064a36.057 36.057 0 0 0 33.936 24h32a36 36 0 0 0 0-72h-32a36.057 36.057 0 0 0 -33.936 24h-78.064a52.059 52.059 0 0 1 -52-52v-36h12a36.04 36.04 0 0 0 36-36v-112a36.04 36.04 0 0 0 -36-36h-12v-52a108.122 108.122 0 0 1 108-108h128a108.122 108.122 0 0 1 108 108v52h-12a36.04 36.04 0 0 0 -36 36v112a36.04 36.04 0 0 0 36 36h24a12 12 0 0 0 12-12v-.8a84 84 0 0 0 37.354-131.97zm-241.354 232.771h32a12 12 0 0 1 0 24h-32a12 12 0 0 1 0-24zm-220-180a60.539 60.539 0 0 1 32-53.045v106.09a60.539 60.539 0 0 1 -32-53.045zm80-56v112a12.013 12.013 0 0 1 -12 12h-12v-136h12a12.013 12.013 0 0 1 12 12zm296 112v-112a12.013 12.013 0 0 1 12-12h12v136h-12a12.013 12.013 0 0 1 -12-12zm48-2.955v-106.09a59.965 59.965 0 0 1 0 106.09z"/><path d="m350.563 213.954a12 12 0 0 0 -13.125 0l-38.633 25.23-32.558-53.428a12 12 0 0 0 -20.494 0l-32.553 53.427-38.633-25.23a12 12 0 0 0 -18.4 12.02l16 96a12 12 0 0 0 11.833 10.027h144a12 12 0 0 0 11.837-10.027l16-96a12 12 0 0 0 -5.274-12.019zm-32.729 94.046h-123.668l-9.834-59 26.106 17.049a12 12 0 0 0 16.809-3.8l28.753-47.188 28.753 47.184a12 12 0 0 0 16.809 3.8l26.106-17.045z"/><circle cx="256" cy="164" r="12"/><circle cx="352" cy="192" r="12"/><circle cx="160" cy="192" r="12"/></g></g></svg>